# xmcd
#
# Track frame offsets:
# 150
# 11050
# 28982
# 38592
# 57895
# 75795
# 89832
# 102972
# 116255
# 133275
# 151092
# 162995
# 180920
# 192782
# 211295
# 229375
# 247347
# 262647
# 279815
# 298865
#
# Disc length: 4225 seconds
#
#
# Revision: 2
# Processed by: cddbd v1.5.2PL0 Copyright (c) Steve Scherf et al.
# Submitted via: FreeRIP 2.951
#
DISCID=0b107f14
DTITLE=Odair José - Millennium
DYEAR=2002
DGENRE=Popular
TTITLE0=Mon Amour, Meu Bem, Ma Femme
TTITLE1=Eu Chorei (O Parto)
TTITLE2=A Noite Mais Linda Do Mundo (A Felicidade)
TTITLE3=Na Minha Opinião (Eu Te Quero, Te Adoro, Te Gosto)
TTITLE4=Cadê Você
TTITLE5=Que Saudade De Você
TTITLE6=Mande Nem Que Seja Um Telegrama
TTITLE7=Eu Sinto Pena E Nada Mais
TTITLE8=Revista Proibida
TTITLE9=Deixe Essa Vergonha De Lado
TTITLE10=E Ninguém Liga Pra Mim
TTITLE11=Eu, Você E A Praça
TTITLE12=Dê Um Chega Na Tristeza
TTITLE13=Uma Vida Só (Pare De Tomar A Pílula)
TTITLE14=Pele Macia
TTITLE15=Baby
TTITLE16=Vou Tirar Você Desse Lugar
TTITLE17=Minhas Coisas
TTITLE18=Esta Noite Você Vai Ter Que Ser Minha
TTITLE19=Pot-Pourri (Garota De Programa - Dê Um Chega Na Tristeza - A Nossa Primeira Vez)
EXTD=pedro.rp@oi.com.br\nDez. 2006
EXTT0=
EXTT1=
EXTT2=
EXTT3=
EXTT4=
EXTT5=
EXTT6=
EXTT7=
EXTT8=
EXTT9=
EXTT10=
EXTT11=
EXTT12=
EXTT13=
EXTT14=
EXTT15=
EXTT16=
EXTT17=
EXTT18=
EXTT19=
PLAYORDER=
